<svg width="34" height="34" viewBox="0 0 34 34" fill="none" xmlns="http://www.w3.org/2000/svg">
<path fill-rule="evenodd" clip-rule="evenodd" d="M14.7333 0C13.4815 0 12.4667 1.01482 12.4667 2.26667V3.4H5.66667C4.41482 3.4 3.4 4.41482 3.4 5.66667V12.4667H2.26667C1.01482 12.4667 0 13.4815 0 14.7333V19.2667C0 20.5185 1.01482 21.5333 2.26667 21.5333H3.4V28.3333C3.4 29.5852 4.41482 30.6 5.66667 30.6H12.4667V31.7333C12.4667 32.9852 13.4815 34 14.7333 34H19.2667C20.5185 34 21.5333 32.9852 21.5333 31.7333V30.6H28.3333C29.5852 30.6 30.6 29.5852 30.6 28.3333V21.5333H31.7333C32.9852 21.5333 34 20.5185 34 19.2667V14.7333C34 13.4815 32.9852 12.4667 31.7333 12.4667H30.6V5.66667C30.6 4.41482 29.5852 3.4 28.3333 3.4H21.5333V2.26667C21.5333 1.01482 20.5185 0 19.2667 0H14.7333ZM10.2 21.5333C11.4518 21.5333 12.4667 22.5482 12.4667 23.8C12.4667 22.5482 13.4815 21.5333 14.7333 21.5333H19.2667C20.5185 21.5333 21.5333 22.5482 21.5333 23.8C21.5333 22.5482 22.5482 21.5333 23.8 21.5333C22.5482 21.5333 21.5333 20.5185 21.5333 19.2667V14.7333C21.5333 13.4815 22.5482 12.4667 23.8 12.4667C22.5482 12.4667 21.5333 11.4518 21.5333 10.2C21.5333 11.4518 20.5185 12.4667 19.2667 12.4667H14.7333C13.4815 12.4667 12.4667 11.4518 12.4667 10.2C12.4667 11.4518 11.4518 12.4667 10.2 12.4667C11.4518 12.4667 12.4667 13.4815 12.4667 14.7333V19.2667C12.4667 20.5185 11.4518 21.5333 10.2 21.5333Z" fill="url(#paint0_linear_2747_22123)"/>
<defs>
<linearGradient id="paint0_linear_2747_22123" x1="0" y1="17" x2="34" y2="17" gradientUnits="userSpaceOnUse">
<stop stop-color="#2BB2FE"/>
<stop offset="1" stop-color="#22CAAD"/>
</linearGradient>
</defs>
</svg>
